<?xml version="1.0" standalone="no"?>
<!DOCTYPE svg PUBLIC "-//W3C//DTD SVG 20010904//EN"
 "http://www.w3.org/TR/2001/REC-SVG-20010904/DTD/svg10.dtd">
<svg version="1.0" xmlns="http://www.w3.org/2000/svg"
 width="441.000000pt" height="113.000000pt" viewBox="0 0 441.000000 113.000000"
 preserveAspectRatio="xMidYMid meet">

<g transform="translate(0.000000,113.000000) scale(0.100000,-0.100000)"
fill="#000000" stroke="none">
<path d="M382 1089 c-23 -17 -42 -32 -42 -34 0 -1 7 -6 16 -9 11 -4 15 -2 11
8 -3 8 0 17 8 20 8 3 16 -3 18 -12 2 -9 3 -7 2 6 -1 12 2 22 6 22 5 0 9 -7 9
-17 0 -24 13 -7 16 22 1 14 2 25 0 25 -1 0 -21 -14 -44 -31z"/>
<path d="M490 1110 c0 -5 5 -10 10 -10 6 0 11 -17 11 -37 l2 -38 7 35 c4 19 8
29 9 23 0 -7 9 -13 19 -13 11 0 13 -3 5 -8 -8 -5 -3 -15 18 -31 16 -13 29 -32
29 -42 0 -21 15 -25 25 -8 4 6 13 8 21 5 7 -3 16 -1 19 3 5 9 -13 20 -27 17
-4 0 -15 9 -23 22 -9 12 -23 22 -31 22 -8 0 -14 4 -14 9 0 4 -18 20 -40 35
-22 14 -40 22 -40 16z m120 -90 c0 -5 -2 -10 -4 -10 -3 0 -8 5 -11 10 -3 6 -1
10 4 10 6 0 11 -4 11 -10z"/>
<path d="M282 1016 c-18 -13 -34 -28 -35 -32 -1 -5 -7 -9 -14 -10 -16 -3 -73
-46 -73 -56 0 -11 32 -10 50 3 11 8 12 12 2 16 -6 2 -10 9 -6 14 7 12 24 11
24 -2 0 -6 7 -17 15 -25 8 -9 15 -11 15 -5 0 6 9 11 20 11 25 0 27 35 3 49
-17 10 -17 12 1 26 14 11 23 12 33 4 9 -8 13 -8 13 0 0 6 -5 11 -11 11 -5 0
-7 5 -4 10 9 14 5 12 -33 -14z"/>
<path d="M422 967 c-1 -56 -6 -77 -14 -76 -22 2 -56 -12 -62 -27 -7 -18 13
-29 27 -15 8 8 7 11 -3 11 -11 1 -10 3 3 11 9 5 21 8 26 5 21 -13 32 25 28 96
l-3 73 -2 -78z"/>
<path d="M694 929 c-1 -25 2 -36 6 -28 13 23 16 62 5 66 -6 2 -11 -15 -11 -38z"/>
<path d="M749 924 c15 -11 19 -20 13 -26 -7 -7 -7 -20 0 -39 8 -23 12 -26 23
-16 7 7 11 15 9 19 -9 14 14 17 26 3 7 -8 20 -15 28 -15 9 0 -12 20 -46 45
-34 25 -65 45 -69 45 -4 0 3 -7 16 -16z"/>
<path d="M501 911 c-8 -14 -6 -23 11 -37 12 -11 18 -14 15 -7 -4 6 -2 15 4 19
8 4 7 9 -2 16 -10 6 -7 7 9 3 16 -5 22 -2 22 9 0 23 -47 20 -59 -3z"/>
<path d="M125 900 c-3 -6 1 -7 9 -4 18 7 21 14 7 14 -6 0 -13 -4 -16 -10z"/>
<path d="M81 866 c-9 -11 -9 -15 1 -19 7 -3 0 -6 -16 -6 -28 -1 -29 -2 -12
-20 22 -24 46 -17 46 13 0 12 5 27 12 34 9 9 8 12 -4 12 -8 0 -21 -6 -27 -14z"/>
<path d="M548 873 c7 -3 16 -2 19 1 4 3 -2 6 -13 5 -11 0 -14 -3 -6 -6z"/>
<path d="M847 820 c-9 -11 -13 -20 -8 -20 11 0 35 29 29 35 -2 2 -12 -4 -21
-15z"/>
<path d="M348 757 c-54 -40 -98 -75 -98 -78 0 -3 47 -40 105 -83 l106 -77 104
78 c58 42 105 80 105 83 -1 10 -200 150 -213 149 -6 0 -56 -33 -109 -72z"/>
<path d="M107 805 c-16 -11 -14 -15 25 -34 24 -11 39 -21 33 -21 -11 -1 25
-30 36 -30 9 0 5 47 -4 57 -4 3 -7 -1 -7 -10 0 -9 -4 -18 -9 -21 -5 -4 -7 3
-4 13 4 16 1 19 -16 14 -16 -4 -21 -1 -21 15 0 27 -11 33 -33 17z"/>
<path d="M598 808 c6 -6 18 -8 28 -6 14 3 12 5 -9 10 -19 3 -25 2 -19 -4z"/>
<path d="M3090 797 c0 -5 -79 -399 -85 -424 -5 -21 -2 -23 39 -23 51 0 49 -3
67 105 6 39 14 76 18 83 4 7 30 -29 66 -93 33 -57 62 -105 65 -105 3 0 30 45
60 100 30 55 57 100 61 100 3 0 11 -33 18 -72 23 -131 10 -118 120 -118 l97 0
17 35 17 36 88 -3 87 -3 14 -32 c14 -31 17 -33 67 -33 l53 0 -53 113 c-30 61
-78 163 -107 224 -30 62 -56 113 -59 113 -3 -1 -52 -97 -109 -215 -58 -118
-108 -215 -111 -215 -4 0 -26 97 -51 216 -38 187 -45 213 -57 197 -7 -10 -43
-73 -79 -141 -37 -67 -70 -119 -74 -115 -4 4 -42 68 -84 141 -67 115 -85 143
-85 129z m669 -219 c39 -91 39 -88 -24 -88 -53 0 -56 1 -50 21 12 35 46 109
51 109 3 0 13 -19 23 -42z"/>
<path d="M1310 571 l0 -221 50 0 50 0 0 91 c0 108 2 108 80 -11 l53 -80 53 0
c30 0 54 3 54 8 0 4 -27 45 -60 91 -33 46 -60 87 -60 91 0 4 11 12 23 17 27
12 57 68 57 105 0 34 -35 85 -72 104 -23 12 -64 19 -130 22 l-98 4 0 -221z
m185 125 c11 -8 18 -26 18 -46 0 -40 -24 -60 -70 -60 l-33 0 0 60 0 60 33 0
c18 0 42 -6 52 -14z"/>
<path d="M1710 570 l0 -220 50 0 50 0 0 220 0 220 -50 0 -50 0 0 -220z"/>
<path d="M1910 571 l0 -221 70 0 c155 0 230 39 230 120 0 51 -13 76 -51 99
l-29 18 24 12 c64 35 57 138 -11 171 -15 7 -74 15 -130 18 l-103 4 0 -221z
m188 125 c24 -24 7 -63 -33 -76 -52 -17 -65 -8 -65 43 0 24 3 47 8 51 11 11
73 -1 90 -18z m-21 -155 c6 -1 19 -8 27 -17 39 -38 1 -94 -64 -94 l-40 0 0 53
c0 62 4 69 39 63 14 -2 31 -5 38 -5z"/>
<path d="M2290 570 l0 -220 135 0 135 0 0 45 0 45 -85 0 -85 0 0 45 0 45 70 0
70 0 0 45 0 45 -70 0 -70 0 0 40 0 40 85 0 85 0 0 45 0 45 -135 0 -135 0 0
-220z"/>
<path d="M2640 570 l0 -220 50 0 50 0 0 85 c0 61 3 85 13 85 6 0 34 -34 60
-75 27 -41 55 -79 62 -85 7 -6 36 -10 64 -8 l51 3 -65 90 -64 90 28 25 c62 54
69 121 19 176 -39 42 -81 53 -190 54 l-78 0 0 -220z m190 120 c41 -41 9 -100
-55 -100 l-35 0 0 60 0 60 35 0 c22 0 43 -8 55 -20z"/>
<path d="M3986 763 c9 -16 44 -63 76 -106 l59 -77 -75 -110 c-42 -60 -76 -112
-76 -115 0 -3 23 -5 52 -3 56 3 56 4 140 129 14 22 15 21 68 -54 l54 -77 58 0
c32 0 58 3 58 8 0 4 -32 50 -71 102 -102 137 -99 116 -24 224 36 52 65 97 65
100 0 4 -23 6 -52 4 -51 -3 -53 -4 -91 -58 -21 -30 -42 -55 -47 -55 -5 0 -27
26 -50 58 l-41 57 -61 0 -60 0 18 -27z"/>
<path d="M226 771 c-3 -5 1 -11 9 -15 8 -3 15 -1 15 4 0 13 -18 22 -24 11z"/>
<path d="M10 656 l0 -115 115 -83 114 -83 3 -185 3 -184 80 -1 c44 0 86 1 92
3 10 3 13 58 13 232 l0 228 -205 151 c-112 83 -207 151 -210 151 -3 0 -5 -51
-5 -114z"/>
<path d="M740 762 c0 -7 -7 -12 -15 -12 -8 0 -15 -7 -15 -15 0 -8 8 -15 18
-14 11 0 12 2 4 6 -10 4 -8 8 5 18 10 7 15 17 10 21 -4 4 -7 2 -7 -4z"/>
<path d="M760 760 c0 -5 5 -10 11 -10 5 0 7 5 4 10 -3 6 -8 10 -11 10 -2 0 -4
-4 -4 -10z"/>
<path d="M692 618 l-202 -150 2 -231 3 -231 80 -1 c44 0 86 1 93 3 9 3 12 49
12 186 l1 181 114 83 115 83 0 115 c0 63 -3 114 -7 113 -5 0 -99 -68 -211
-151z"/>
<path d="M676 748 c3 -4 9 -8 15 -8 5 0 9 4 9 8 0 5 -7 9 -15 9 -8 0 -12 -4
-9 -9z"/>
<path d="M1980 120 l0 -110 60 0 c47 0 60 3 60 15 0 11 -12 15 -45 15 -45 0
-45 0 -45 35 0 34 1 35 40 35 29 0 40 4 40 15 0 11 -11 15 -40 15 -38 0 -40 2
-40 30 0 29 2 30 45 30 33 0 45 4 45 15 0 12 -13 15 -60 15 l-60 0 0 -110z"/>
<path d="M2150 119 c0 -84 3 -110 13 -106 8 3 12 28 11 85 -1 45 1 80 5 77 4
-2 16 -40 26 -85 27 -116 41 -108 74 38 15 70 21 61 21 -31 0 -71 3 -87 15
-87 12 0 15 19 15 110 l0 110 -25 0 c-20 0 -26 -7 -35 -40 -5 -22 -15 -59 -22
-82 l-11 -43 -19 83 c-18 75 -22 82 -44 82 -24 0 -24 0 -24 -111z"/>
<path d="M2380 120 l0 -110 50 0 c77 0 116 54 73 102 -13 14 -14 21 -5 30 19
19 14 66 -7 78 -11 5 -40 10 -65 10 l-46 0 0 -110z m93 69 c15 -24 1 -49 -28
-49 -22 0 -25 4 -25 36 0 31 3 35 21 32 12 -2 27 -10 32 -19z m9 -92 c18 -28
-7 -67 -43 -67 -16 0 -19 7 -19 44 0 43 1 45 27 40 15 -3 31 -11 35 -17z"/>
<path d="M2607 223 c-7 -12 -57 -190 -57 -202 0 -23 26 -9 37 19 9 24 17 30
42 30 27 0 32 -4 38 -30 4 -20 11 -30 24 -30 16 0 16 6 -7 93 -35 130 -33 127
-54 127 -10 0 -21 -3 -23 -7z m39 -90 c6 -41 6 -43 -20 -43 -30 0 -29 -2 -15
56 13 52 25 47 35 -13z"/>
<path d="M2740 120 l0 -111 55 3 c64 3 74 22 15 26 l-40 3 0 95 c0 77 -3 94
-15 94 -12 0 -15 -19 -15 -110z"/>
<path d="M2937 223 c-7 -12 -57 -190 -57 -202 0 -23 26 -9 37 19 9 24 17 30
41 30 26 0 31 -5 37 -30 4 -20 13 -30 25 -30 18 0 18 2 0 68 -10 37 -24 86
-30 110 -8 31 -16 42 -30 42 -10 0 -21 -3 -23 -7z m38 -90 c7 -42 6 -43 -20
-43 -24 0 -26 3 -21 26 4 15 10 40 13 56 7 37 18 22 28 -39z"/>
<path d="M3086 208 c-11 -15 -16 -45 -16 -88 0 -77 17 -110 59 -110 15 0 32 5
39 12 9 9 12 9 12 0 0 -7 5 -12 10 -12 6 0 10 25 10 55 0 54 0 55 -30 55 -16
0 -30 -4 -30 -10 0 -5 7 -10 16 -10 11 0 14 -8 12 -26 -4 -35 -31 -53 -52 -35
-20 16 -23 140 -4 159 19 19 49 14 55 -8 6 -23 33 -27 33 -6 0 46 -86 64 -114
24z"/>
<path d="M3250 120 l0 -110 60 0 c46 0 60 3 60 14 0 10 -14 16 -42 18 -40 3
-43 5 -46 36 -3 31 -2 32 37 32 55 0 58 27 4 32 -33 3 -38 7 -41 31 -3 26 -2
27 42 27 34 0 46 4 46 15 0 12 -13 15 -60 15 l-60 0 0 -110z"/>
<path d="M3420 120 c0 -91 3 -110 15 -110 12 0 15 16 16 83 l0 82 32 -83 c27
-69 35 -82 52 -80 19 3 20 11 21 111 1 83 -2 107 -13 107 -10 0 -13 -19 -13
-75 0 -41 -3 -75 -8 -75 -4 0 -20 34 -36 75 -22 56 -33 75 -47 75 -17 0 -19
-9 -19 -110z"/>
<path d="M3621 216 c-7 -8 -11 -30 -9 -48 3 -28 10 -36 46 -53 45 -21 61 -47
42 -70 -19 -23 -49 -18 -62 10 -12 26 -38 34 -38 12 0 -31 31 -57 69 -57 44 0
71 24 71 62 0 28 -20 49 -68 68 -27 11 -33 18 -30 39 4 34 47 43 55 12 3 -12
12 -21 19 -21 17 0 18 32 2 48 -17 17 -83 15 -97 -2z"/>
</g>
</svg>
